<?xml version="1.0" encoding="UTF-8" standalone="no"?>
<!-- Created with Inkscape (http://www.inkscape.org/) -->

<svg
   width="177.78831mm"
   height="30.604286mm"
   viewBox="0 0 177.78831 30.604286"
   version="1.1"
   id="svg5"
   xmlns:inkscape="http://www.inkscape.org/namespaces/inkscape"
   xmlns:sodipodi="http://sodipodi.sourceforge.net/DTD/sodipodi-0.dtd"
   xmlns="http://www.w3.org/2000/svg"
   xmlns:svg="http://www.w3.org/2000/svg">
  <sodipodi:namedview
     id="namedview7"
     pagecolor="#ffffff"
     bordercolor="#000000"
     borderopacity="0.25"
     inkscape:showpageshadow="2"
     inkscape:pageopacity="0.0"
     inkscape:pagecheckerboard="0"
     inkscape:deskcolor="#d1d1d1"
     inkscape:document-units="mm"
     showgrid="false" />
  <defs
     id="defs2" />
  <g
     inkscape:label="Camada 1"
     inkscape:groupmode="layer"
     id="layer1"
     transform="translate(-13.548637,-79.626028)">
    <g
       aria-label="DevPING"
       id="text113"
       style="font-size:35.9375px;font-family:'Hey August';-inkscape-font-specification:'Hey August';fill:#1a1a1a;stroke-width:2.99479"
       transform="matrix(1.1602144,0,0,1.1602144,-7.3073607,-16.087196)">
      <path
         d="m 39.250985,95.43365 q 0,6.50469 -3.701563,9.81094 -3.665625,3.27031 -10.314062,3.27031 H 17.975985 V 82.855525 h 8.05 q 4.025,0 6.971875,1.4375 2.982812,1.4375 4.6,4.240625 1.653125,2.767188 1.653125,6.9 z m -5.642188,0.14375 q 0,-4.276562 -1.86875,-6.253125 -1.86875,-2.0125 -5.426562,-2.0125 h -2.910938 v 16.710935 h 2.335938 q 7.870312,0 7.870312,-8.44531 z"
         style="fill:#008000"
         id="path829" />
      <path
         d="m 52.224414,88.53365 q 4.060938,0 6.432813,2.335938 2.371875,2.3 2.371875,6.576562 v 2.5875 h -12.65 q 0.07187,2.26406 1.329687,3.55781 1.29375,1.29375 3.557813,1.29375 1.904687,0 3.45,-0.35937 1.545312,-0.39531 3.198437,-1.18594 v 4.13281 q -1.4375,0.71875 -3.054687,1.04219 -1.58125,0.35938 -3.845313,0.35938 -2.946875,0 -5.210937,-1.07813 -2.264063,-1.11406 -3.557813,-3.34219 -1.29375,-2.22812 -1.29375,-5.606247 0,-3.45 1.15,-5.714063 1.185938,-2.3 3.270313,-3.45 2.084375,-1.15 4.851562,-1.15 z m 0.03594,3.809375 q -1.545313,0 -2.5875,1.00625 -1.00625,1.00625 -1.185938,3.126563 h 7.510938 q -0.03594,-1.796875 -0.934375,-2.946875 -0.898438,-1.185938 -2.803125,-1.185938 z"
         style="fill:#008000"
         id="path831" />
      <path
         d="m 69.330635,108.5149 -7.475,-19.621875 h 5.60625 l 3.773437,11.176565 q 0.323438,1.00625 0.503125,2.08437 0.215625,1.07813 0.251563,1.94063 h 0.14375 q 0.107812,-1.94063 0.790625,-4.025 l 3.773437,-11.176565 h 5.60625 l -7.475,19.621875 z"
         style="fill:#008000"
         id="path833" />
      <path
         d="m 93.732204,82.855525 q 4.959375,0 7.223436,2.15625 2.3,2.120313 2.3,5.857813 0,2.228125 -0.93437,4.204687 -0.93438,1.940625 -3.126566,3.126563 -2.15625,1.185937 -5.89375,1.185937 H 90.965017 V 108.5149 H 85.538454 V 82.855525 Z m -0.2875,4.45625 h -2.479687 v 7.61875 h 1.796875 q 2.3,0 3.629687,-0.898437 1.365625,-0.934375 1.365625,-2.982813 0,-3.7375 -4.3125,-3.7375 z"
         style="font-weight:bold;font-family:sans-serif;-inkscape-font-specification:'sans-serif Bold'"
         id="path835" />
      <path
         d="m 117.70253,108.5149 h -11.67969 v -3.09062 l 3.12657,-1.4375 V 87.38365 l -3.12657,-1.4375 v -3.090625 h 11.67969 v 3.090625 l -3.12656,1.4375 v 16.60313 l 3.12656,1.4375 z"
         style="font-weight:bold;font-family:sans-serif;-inkscape-font-specification:'sans-serif Bold'"
         id="path837" />
      <path
         d="m 144.83534,108.5149 h -6.9 L 126.75878,89.10865 h -0.14375 q 0.0719,1.832813 0.14375,3.665625 0.10781,1.832813 0.17968,3.665625 v 12.075 H 122.0869 V 82.855525 h 6.86406 l 11.14063,19.226565 h 0.10781 q -0.0359,-1.79688 -0.10781,-3.557815 -0.0719,-1.760937 -0.14375,-3.521875 V 82.855525 h 4.8875 z"
         style="font-weight:bold;font-family:sans-serif;-inkscape-font-specification:'sans-serif Bold'"
         id="path839" />
      <path
         d="m 161.04314,94.103963 h 10.17031 v 13.296877 q -2.0125,0.68281 -4.20468,1.07812 -2.15625,0.39532 -4.92344,0.39532 -5.75,0 -8.84063,-3.37813 -3.09062,-3.37812 -3.09062,-9.846875 0,-4.025 1.54531,-6.971875 1.58125,-2.946875 4.56406,-4.564062 2.98282,-1.617188 7.29532,-1.617188 2.04843,0 4.025,0.43125 1.97656,0.43125 3.59375,1.15 l -1.79688,4.348438 q -1.18594,-0.610938 -2.69531,-1.00625 -1.50938,-0.395313 -3.1625,-0.395313 -2.37188,0 -4.13281,1.078125 -1.725,1.078125 -2.69532,3.054688 -0.93437,1.940625 -0.93437,4.6 0,2.515625 0.68281,4.456252 0.68281,1.94062 2.15625,3.05469 1.47344,1.07812 3.84531,1.07812 1.15,0 1.94063,-0.10781 0.82656,-0.10781 1.50937,-0.25156 v -5.354692 h -4.85156 z"
         style="font-weight:bold;font-family:sans-serif;-inkscape-font-specification:'sans-serif Bold'"
         id="path841" />
    </g>
  </g>
</svg>
